<svg width="82" height="28" viewBox="0 0 82 28" fill="none" xmlns="http://www.w3.org/2000/svg">
<path fill-rule="evenodd" clip-rule="evenodd" d="M0.501253 8.98327C6.33953 14.3962 14.156 17.7054 22.7454 17.7054C23.124 17.7054 23.501 17.6989 23.8765 17.6862C24.5978 16.1064 24.9998 14.3501 24.9998 12.5C24.9998 5.59644 19.4033 0 12.4998 0C6.81724 0 2.02035 3.79181 0.501253 8.98327Z" fill="#223134"/>
<path fill-rule="evenodd" clip-rule="evenodd" d="M12.4998 22.5C6.97691 22.5 2.49976 18.0228 2.49976 12.5C2.49976 6.97715 6.97691 2.5 12.4998 2.5C18.0226 2.5 22.4998 6.97715 22.4998 12.5C22.4998 18.0228 18.0226 22.5 12.4998 22.5ZM12.4998 25C5.5962 25 -0.000244141 19.4036 -0.000244141 12.5C-0.000244141 5.59644 5.5962 0 12.4998 0C19.4033 0 24.9998 5.59644 24.9998 12.5C24.9998 19.4036 19.4033 25 12.4998 25Z" fill="#223134"/>
<path d="M73.7863 22.4109C72.7252 22.4109 71.7282 22.2188 70.7952 21.8346C69.8805 21.4505 69.0847 20.9291 68.4078 20.2705C67.731 19.5936 67.2004 18.807 66.8163 17.9106C66.4321 16.9959 66.24 16.0263 66.24 15.0018C66.24 13.9774 66.4321 13.0169 66.8163 12.1205C67.2004 11.2058 67.731 10.4192 68.4078 9.76061C69.0847 9.08373 69.8805 8.55321 70.7952 8.16903C71.7282 7.78486 72.7252 7.59277 73.7863 7.59277C74.8839 7.59277 75.8809 7.78486 76.7773 8.16903C77.692 8.55321 78.4787 9.08373 79.1373 9.76061C79.7958 10.4375 80.2989 11.2241 80.6465 12.1205C81.0124 13.0169 81.1953 13.9774 81.1953 15.0018V15.8251H70.2189C70.2921 16.2641 70.4293 16.6849 70.6306 17.0874C70.8501 17.4898 71.1153 17.8466 71.4263 18.1576C71.7556 18.4503 72.1215 18.6881 72.524 18.871C72.9264 19.0357 73.3472 19.118 73.7863 19.118C74.4083 19.118 74.9113 19.0357 75.2955 18.871C75.698 18.6881 76.0273 18.496 76.2834 18.2948C76.5578 18.0569 76.7773 17.7825 76.942 17.4715H81.0581C80.7654 18.3862 80.3081 19.2095 79.6861 19.9412C79.4117 20.2522 79.0915 20.5541 78.7256 20.8468C78.3598 21.1395 77.939 21.4047 77.4634 21.6426C76.9877 21.8804 76.4389 22.0633 75.8169 22.1914C75.2132 22.3377 74.5363 22.4109 73.7863 22.4109ZM77.0792 13.4926C77.006 13.145 76.8779 12.8157 76.695 12.5047C76.5121 12.1937 76.2742 11.9193 75.9815 11.6815C75.7071 11.4437 75.3778 11.2516 74.9937 11.1052C74.6278 10.9589 74.2253 10.8857 73.7863 10.8857C72.8899 10.8857 72.1398 11.151 71.5361 11.6815C70.9507 12.1937 70.5574 12.7974 70.3561 13.4926H77.0792Z" fill="#223134"/>
<path d="M58.0131 21.9998H54.9946L51.29 8.00488H55.269L58.0131 18.7069H59.1107L62.1292 8.00488H66.1082L60.4828 27.2136H56.5038L58.0131 21.9998Z" fill="#223134"/>
<path d="M34 2.79102H43.0555C44.2263 2.79102 45.2782 2.96481 46.2112 3.31239C47.1442 3.64169 47.9309 4.09904 48.5712 4.68444C49.2297 5.26985 49.7328 5.95588 50.0804 6.74252C50.428 7.51087 50.6018 8.34324 50.6018 9.23965C50.6018 9.9897 50.4829 10.6757 50.2451 11.2977C50.0255 11.9197 49.7145 12.4777 49.3121 12.9716C48.9279 13.4473 48.4705 13.868 47.94 14.2339C47.4095 14.5998 46.8332 14.9016 46.2112 15.1395L50.6018 21.9997H45.9368L41.9579 15.6883H38.1161V21.9997H34V2.79102ZM42.9183 11.8465C44.0891 11.8465 44.949 11.6087 45.4978 11.1331C46.0649 10.6391 46.3484 10.008 46.3484 9.23965C46.3484 8.4713 46.0649 7.8493 45.4978 7.37366C44.949 6.87972 44.0891 6.63275 42.9183 6.63275H38.1161V11.8465H42.9183Z" fill="#223134"/>
</svg>
